<svg xmlns="http://www.w3.org/2000/svg" width="92" height="92" viewBox="0 0 92 92" role="img" aria-label="New Project">
  <title>New Project</title>
  <defs>
    <linearGradient id="bg" x1="0" y1="0" x2="1" y2="1">
      <stop offset="0" stop-color="#082A34"/><stop offset="1" stop-color="#020812"/>
    </linearGradient>
    <linearGradient id="cyan" x1="0" y1="0" x2="1" y2="1">
      <stop offset="0" stop-color="#73F7FF"/><stop offset="1" stop-color="#00BFAE"/>
    </linearGradient>
    <linearGradient id="orange" x1="0" y1="0" x2="1" y2="1">
      <stop offset="0" stop-color="#FFD66B"/><stop offset="1" stop-color="#FF8A00"/>
    </linearGradient>
    <filter id="glow" x="-40%" y="-40%" width="180%" height="180%">
      <feGaussianBlur stdDeviation="2.2" result="b"/><feMerge><feMergeNode in="b"/><feMergeNode in="SourceGraphic"/></feMerge>
    </filter>
    <filter id="soft" x="-20%" y="-20%" width="140%" height="140%"><feDropShadow dx="0" dy="3" stdDeviation="3" flood-color="#00FFE0" flood-opacity="0.18"/></filter>
    <style>
      .tile{fill:url(#bg);stroke:#64F5F0;stroke-width:1.4;opacity:.95;filter:url(#soft)}
      .map{fill:none;stroke:#234653;stroke-width:1;opacity:.42}
      .c{fill:none;stroke:url(#cyan);stroke-width:3.2;stroke-linecap:round;stroke-linejoin:round;filter:url(#glow)}
      .ct{fill:url(#cyan);stroke:#DFFFFF;stroke-width:1.2;filter:url(#glow)}
      .o{fill:none;stroke:url(#orange);stroke-width:3.2;stroke-linecap:round;stroke-linejoin:round;filter:url(#glow)}
      .ot{fill:url(#orange);stroke:#FFE9A8;stroke-width:1.2;filter:url(#glow)}
      .w{fill:none;stroke:#EAFBFF;stroke-width:2.6;stroke-linecap:round;stroke-linejoin:round}
      .dot{fill:#EAFBFF;stroke:#AFFFF8;stroke-width:1.6;filter:url(#glow)}
      .txt{font-family:Arial, Helvetica, sans-serif;font-size:15px;font-weight:700;fill:#FFE4A3;text-anchor:middle}
    </style>
  </defs>
  <polygon class="tile" points="46,5 78,23.5 78,68.5 46,87 14,68.5 14,23.5"/>
  <path class="map" d="M20 28h14l8-7h11l8 7h11M20 46h16l7-6h14l6 6h9M20 64h18l7-8h16l9 8"/>
  <path class="c" d="M30 58V34h26l8 8v16"/><path class="c" d="M30 45h36"/><path class="o" d="M66 57v16M58 65h16"/>
</svg>